<?xml version="1.0" encoding="iso-8859-1"?>
<!-- Generator: Adobe Illustrator 19.0.0, SVG Export Plug-In . SVG Version: 6.00 Build 0)  -->
<svg xmlns="http://www.w3.org/2000/svg" xmlns:xlink="http://www.w3.org/1999/xlink" version="1.1" id="Capa_1" x="0px" y="0px" viewBox="0 0 368 368" style="enable-background:new 0 0 368 368;" xml:space="preserve" width="512px" height="512px">
<g>
	<g>
		<path d="M184,0C82.536,0,0,82.544,0,184s82.536,184,184,184s184-82.544,184-184S285.464,0,184,0z M184,352    c-92.632,0-168-75.36-168-168S91.368,16,184,16s168,75.36,168,168S276.632,352,184,352z" fill="#ff4c4c"/>
	</g>
</g>
<g>
	<g>
		<path d="M269.048,99.44c-0.08-0.088-0.112-0.208-0.2-0.288c-0.088-0.088-0.208-0.112-0.296-0.2C246.848,77.368,216.96,64,184,64    c-32.968,0-62.864,13.376-84.576,34.968c-0.088,0.08-0.2,0.104-0.28,0.184c-0.08,0.08-0.104,0.192-0.184,0.28    C77.368,121.144,64,151.032,64,184c0,32.96,13.368,62.848,34.952,84.56c0.08,0.088,0.112,0.208,0.192,0.296    c0.088,0.088,0.208,0.112,0.296,0.2C121.152,290.632,151.04,304,184,304c32.944,0,62.816-13.36,84.528-34.92    c0.104-0.088,0.232-0.12,0.328-0.216s0.128-0.224,0.216-0.32C290.64,246.832,304,216.952,304,184    C304,151.04,290.632,121.152,269.048,99.44z M287.592,175.992H239.36V176c-1.36-9.464-5.088-18.152-10.576-25.48l34.104-34.104    C276.864,132.704,285.856,153.336,287.592,175.992z M192,80.408c22.664,1.736,43.288,10.728,59.576,24.704l-34.104,34.104    c-7.32-5.488-16.008-9.216-25.472-10.576V80.408z M176,80.408v48.232c-9.464,1.36-18.152,5.088-25.48,10.576l-34.104-34.104    C132.712,91.136,153.336,82.144,176,80.408z M105.104,116.424l34.104,34.104C133.72,157.856,130,166.536,128.64,176H80.408    C82.144,153.336,91.128,132.712,105.104,116.424z M80.408,192h48.232c1.36,9.464,5.088,18.152,10.576,25.48l-34.104,34.104    C91.136,235.288,82.144,214.664,80.408,192z M176,287.592c-22.664-1.736-43.288-10.728-59.576-24.704l34.104-34.104    c7.32,5.488,16.008,9.208,25.472,10.576V287.592z M144,184c0-22.056,17.944-40,40-40c22.056,0,40,17.944,40,40    c0,22.056-17.944,40-40,40C161.944,224,144,206.056,144,184z M192,287.592V239.36c9.464-1.36,18.144-5.088,25.472-10.568    l34.104,34.104C235.28,276.872,214.656,285.856,192,287.592z M262.888,251.584l-34.104-34.104    c5.488-7.328,9.216-16.016,10.576-25.48h48.232C285.856,214.664,276.864,235.288,262.888,251.584z" fill="#ff4c4c"/>
	</g>
</g>
<g>
</g>
<g>
</g>
<g>
</g>
<g>
</g>
<g>
</g>
<g>
</g>
<g>
</g>
<g>
</g>
<g>
</g>
<g>
</g>
<g>
</g>
<g>
</g>
<g>
</g>
<g>
</g>
<g>
</g>
</svg>
